<svg width="113" height="38" viewBox="0 0 113 38" fill="none" xmlns="http://www.w3.org/2000/svg">
<g filter="url(#filter0_di_793_332)">
<path fill-rule="evenodd" clip-rule="evenodd" d="M3.60229 34.9263C3.59165 34.9632 3.61937 35 3.65779 35H9.54345C9.56983 35 9.59286 34.9821 9.5994 34.9566L12.523 23.5488C12.5295 23.5233 12.5526 23.5054 12.5789 23.5054H18.6114C18.6381 23.5054 18.6613 23.5237 18.6675 23.5496L21.4188 34.9558C21.425 34.9817 21.4482 35 21.4749 35H28.3176C28.3432 35 28.3658 34.9831 28.373 34.9584L37.6966 3.07397C37.7074 3.037 37.6797 3 37.6412 3H31.4648C31.4395 3 31.4171 3.01648 31.4096 3.04067L25.0684 23.5054L18.6695 3.04053C18.662 3.01642 18.6397 3 18.6144 3H12.8375C12.8118 3 12.7891 3.01704 12.782 3.04178L3.60229 34.9263ZM17.8929 18.1516C17.8997 18.1872 17.8724 18.2202 17.8361 18.2202H13.4717C13.435 18.2202 13.4076 18.1865 13.4152 18.1506L14.9794 10.6993C14.985 10.6726 15.0086 10.6534 15.0359 10.6534H16.4141C16.4419 10.6534 16.4657 10.6731 16.4709 10.7004L17.8929 18.1516Z" fill="url(#paint0_linear_793_332)"/>
<path fill-rule="evenodd" clip-rule="evenodd" d="M3.60229 34.9263C3.59165 34.9632 3.61937 35 3.65779 35H9.54345C9.56983 35 9.59286 34.9821 9.5994 34.9566L12.523 23.5488C12.5295 23.5233 12.5526 23.5054 12.5789 23.5054H18.6114C18.6381 23.5054 18.6613 23.5237 18.6675 23.5496L21.4188 34.9558C21.425 34.9817 21.4482 35 21.4749 35H28.3176C28.3432 35 28.3658 34.9831 28.373 34.9584L37.6966 3.07397C37.7074 3.037 37.6797 3 37.6412 3H31.4648C31.4395 3 31.4171 3.01648 31.4096 3.04067L25.0684 23.5054L18.6695 3.04053C18.662 3.01642 18.6397 3 18.6144 3H12.8375C12.8118 3 12.7891 3.01704 12.782 3.04178L3.60229 34.9263ZM17.8929 18.1516C17.8997 18.1872 17.8724 18.2202 17.8361 18.2202H13.4717C13.435 18.2202 13.4076 18.1865 13.4152 18.1506L14.9794 10.6993C14.985 10.6726 15.0086 10.6534 15.0359 10.6534H16.4141C16.4419 10.6534 16.4657 10.6731 16.4709 10.7004L17.8929 18.1516Z" stroke="url(#paint1_linear_793_332)" stroke-width="0.231047"/>
</g>
<path d="M37.9 25L43.28 10.36H44.76L49.9 25H48.14L46.88 20.92H41.04L39.72 25H37.9ZM41.58 19.44H46.36L44 12.62L41.58 19.44ZM51.1984 25V14.38H52.2384L52.6784 15.62C52.7184 15.6067 52.8651 15.5267 53.1184 15.38C53.3718 15.22 53.5251 15.1267 53.5784 15.1C53.6451 15.0733 53.7918 15 54.0184 14.88C54.2451 14.7467 54.4051 14.6667 54.4984 14.64C54.5918 14.6133 54.7451 14.56 54.9584 14.48C55.1718 14.4 55.3451 14.3467 55.4784 14.32C55.6251 14.2933 55.7984 14.2667 55.9984 14.24C56.1984 14.2133 56.3984 14.2 56.5984 14.2C57.6118 14.2 58.4118 14.5333 58.9984 15.2C59.5851 15.8667 59.8784 16.6667 59.8784 17.6V25H58.3984V17.6C58.3984 16.9733 58.2318 16.5 57.8984 16.18C57.5651 15.8467 57.1318 15.68 56.5984 15.68C56.0918 15.68 55.6118 15.7333 55.1584 15.84C54.7051 15.9467 54.3384 16.06 54.0584 16.18C53.7918 16.2867 53.3318 16.5 52.6784 16.82V25H51.1984ZM61.4773 12.66V11.58C61.4773 11.2467 61.6373 11.08 61.9573 11.08H62.9573C63.264 11.08 63.4173 11.2467 63.4173 11.58V12.66C63.4173 12.9667 63.264 13.12 62.9573 13.12H61.9573C61.6373 13.12 61.4773 12.9667 61.4773 12.66ZM61.6773 25V14.38H63.1573V25H61.6773ZM64.4227 14.38H66.0427L69.3627 22.82L72.7227 14.38H74.3427L70.0827 25H68.6027L64.4227 14.38ZM75.3453 19.64C75.3453 18.4667 75.4253 17.5267 75.5853 16.82C75.7453 16.1 76.032 15.56 76.4453 15.2C76.872 14.8267 77.3386 14.5867 77.8453 14.48C78.3653 14.36 79.0786 14.3 79.9853 14.3C80.7186 14.3 81.292 14.3333 81.7053 14.4C82.1186 14.4667 82.5253 14.62 82.9253 14.86C83.3253 15.1 83.612 15.48 83.7853 16C83.9586 16.52 84.0453 17.2067 84.0453 18.06C84.0453 19.6867 83.132 20.5 81.3053 20.5H76.8253C76.8253 21.74 76.9653 22.5733 77.2453 23C77.5253 23.4133 78.0586 23.62 78.8453 23.62C78.9386 23.62 79.0786 23.62 79.2653 23.62C79.452 23.62 79.592 23.62 79.6853 23.62C81.552 23.62 82.9386 23.5533 83.8453 23.42V24.54C82.5253 24.9133 80.8586 25.1 78.8453 25.1C77.4986 25.1 76.5786 24.7133 76.0853 23.94C75.592 23.1667 75.3453 21.7333 75.3453 19.64ZM76.8253 19.04H81.3053C82.1453 19.04 82.5653 18.7133 82.5653 18.06C82.5653 17.0333 82.412 16.4 82.1053 16.16C81.812 15.9067 81.112 15.78 80.0053 15.78C79.5386 15.78 79.192 15.7867 78.9653 15.8C78.752 15.8133 78.492 15.8533 78.1853 15.92C77.892 15.9733 77.6786 16.0667 77.5453 16.2C77.4253 16.3333 77.292 16.52 77.1453 16.76C77.012 17 76.9253 17.3067 76.8853 17.68C76.8453 18.0533 76.8253 18.5067 76.8253 19.04ZM85.6531 25V14.38H86.6931L87.1331 15.72C87.1998 15.68 87.3665 15.58 87.6331 15.42C87.9131 15.26 88.0931 15.16 88.1731 15.12C88.2665 15.0667 88.4331 14.98 88.6731 14.86C88.9131 14.74 89.0998 14.66 89.2331 14.62C89.3798 14.5667 89.5598 14.5067 89.7731 14.44C89.9998 14.3733 90.2198 14.3267 90.4331 14.3C90.6465 14.2733 90.8665 14.26 91.0931 14.26C91.8665 14.26 92.3598 14.3133 92.5731 14.42V15.88C92.2531 15.8 91.7598 15.76 91.0931 15.76C90.5865 15.76 90.0998 15.8133 89.6331 15.92C89.1798 16.0267 88.8131 16.14 88.5331 16.26C88.2665 16.38 87.7998 16.6 87.1331 16.92V25H85.6531ZM93.3687 17.84V16.92C93.3687 16.0533 93.5821 15.4 94.0087 14.96C94.4354 14.5067 95.1421 14.28 96.1287 14.28C97.3954 14.28 99.1354 14.3867 101.349 14.6V15.74H96.1287C95.8221 15.74 95.5754 15.7667 95.3887 15.82C95.2021 15.8733 95.0687 15.9667 94.9887 16.1C94.9221 16.22 94.8821 16.3333 94.8687 16.44C94.8554 16.5467 94.8487 16.7067 94.8487 16.92V17.84C94.8487 18.1067 94.8754 18.32 94.9287 18.48C94.9954 18.64 95.0954 18.7533 95.2287 18.82C95.3621 18.8867 95.4887 18.9333 95.6087 18.96C95.7287 18.9733 95.9021 18.98 96.1287 18.98H99.2887C100.129 18.98 100.769 19.22 101.209 19.7C101.662 20.1667 101.889 20.7867 101.889 21.56V22.54C101.889 23.5267 101.649 24.2 101.169 24.56C100.689 24.92 100.062 25.1 99.2887 25.1C98.0487 25.1 96.2221 24.9733 93.8087 24.72V23.62H99.2887C99.3154 23.62 99.3421 23.62 99.3687 23.62C99.4621 23.62 99.5554 23.6133 99.6487 23.6C99.7421 23.5733 99.8487 23.5267 99.9687 23.46C100.102 23.3933 100.209 23.28 100.289 23.12C100.369 22.96 100.409 22.7667 100.409 22.54V21.56C100.409 21.1867 100.322 20.9133 100.149 20.74C99.9887 20.5533 99.7021 20.46 99.2887 20.46H96.1287C95.1554 20.46 94.4487 20.2733 94.0087 19.9C93.5821 19.5267 93.3687 18.84 93.3687 17.84ZM103.286 19.64C103.286 18.4667 103.366 17.5267 103.526 16.82C103.686 16.1 103.973 15.56 104.386 15.2C104.813 14.8267 105.279 14.5867 105.786 14.48C106.306 14.36 107.019 14.3 107.926 14.3C108.659 14.3 109.233 14.3333 109.646 14.4C110.059 14.4667 110.466 14.62 110.866 14.86C111.266 15.1 111.553 15.48 111.726 16C111.899 16.52 111.986 17.2067 111.986 18.06C111.986 19.6867 111.073 20.5 109.246 20.5H104.766C104.766 21.74 104.906 22.5733 105.186 23C105.466 23.4133 105.999 23.62 106.786 23.62C106.879 23.62 107.019 23.62 107.206 23.62C107.393 23.62 107.533 23.62 107.626 23.62C109.493 23.62 110.879 23.5533 111.786 23.42V24.54C110.466 24.9133 108.799 25.1 106.786 25.1C105.439 25.1 104.519 24.7133 104.026 23.94C103.533 23.1667 103.286 21.7333 103.286 19.64ZM104.766 19.04H109.246C110.086 19.04 110.506 18.7133 110.506 18.06C110.506 17.0333 110.353 16.4 110.046 16.16C109.753 15.9067 109.053 15.78 107.946 15.78C107.479 15.78 107.133 15.7867 106.906 15.8C106.693 15.8133 106.433 15.8533 106.126 15.92C105.833 15.9733 105.619 16.0667 105.486 16.2C105.366 16.3333 105.233 16.52 105.086 16.76C104.953 17 104.866 17.3067 104.826 17.68C104.786 18.0533 104.766 18.5067 104.766 19.04Z" fill="white"/>
<defs>
<filter id="filter0_di_793_332" x="0.700259" y="0.100162" width="39.8983" height="37.7997" filterUnits="userSpaceOnUse" color-interpolation-filters="sRGB">
<feFlood flood-opacity="0" result="BackgroundImageFix"/>
<feColorMatrix in="SourceAlpha" type="matrix" values="0 0 0 0 0 0 0 0 0 0 0 0 0 0 0 0 0 0 127 0" result="hardAlpha"/>
<feOffset/>
<feGaussianBlur stdDeviation="1.39206"/>
<feComposite in2="hardAlpha" operator="out"/>
<feColorMatrix type="matrix" values="0 0 0 0 1 0 0 0 0 1 0 0 0 0 1 0 0 0 1 0"/>
<feBlend mode="normal" in2="BackgroundImageFix" result="effect1_dropShadow_793_332"/>
<feBlend mode="normal" in="SourceGraphic" in2="effect1_dropShadow_793_332" result="shape"/>
<feColorMatrix in="SourceAlpha" type="matrix" values="0 0 0 0 0 0 0 0 0 0 0 0 0 0 0 0 0 0 127 0" result="hardAlpha"/>
<feOffset/>
<feGaussianBlur stdDeviation="0.924188"/>
<feComposite in2="hardAlpha" operator="arithmetic" k2="-1" k3="1"/>
<feColorMatrix type="matrix" values="0 0 0 0 1 0 0 0 0 1 0 0 0 0 1 0 0 0 1 0"/>
<feBlend mode="normal" in2="shape" result="effect2_innerShadow_793_332"/>
</filter>
<linearGradient id="paint0_linear_793_332" x1="1.12618" y1="23.0722" x2="33.1262" y2="23.0722" gradientUnits="userSpaceOnUse">
<stop stop-color="#0119B6"/>
<stop offset="1" stop-color="#010B50"/>
</linearGradient>
<linearGradient id="paint1_linear_793_332" x1="1.12618" y1="23.0722" x2="33.1262" y2="23.0722" gradientUnits="userSpaceOnUse">
<stop stop-color="#ABAEC2"/>
<stop offset="1" stop-color="#7789FF"/>
</linearGradient>
</defs>
</svg>
