<svg width="24" height="24" viewBox="0 0 24 24" fill="none" xmlns="http://www.w3.org/2000/svg">
<path d="M9 20.0283C12.5 17.5283 11 22.5283 13.5 20.0283C15.5 18.0283 16.3333 19.3617 17 20.5284" stroke="white"/>
<path d="M6 16V20L9 17.5M6 16L9 17.5M6 16L7.84615 12L10.6154 6M9 17.5L10.8462 13.5L13.6154 7.5M13.6154 7.5L10.6154 6M13.6154 7.5L14.3077 6M10.6154 6L11.5676 3.93678C11.8042 3.42421 12.4179 3.20894 12.9228 3.46141L14.1331 4.06654C14.6162 4.30809 14.8202 4.88962 14.5938 5.38003L14.3077 6M14.3077 6L15 6.5L13.5 9.5H13" stroke="white"/>
</svg>
