<svg width="24" height="24" viewBox="0 0 24 24" fill="none" xmlns="http://www.w3.org/2000/svg">
<g clip-path="url(#clip0_668_665)">
<g filter="url(#filter0_d_668_665)">
<path d="M8 11V19C8 19.2652 7.89464 19.5196 7.70711 19.7071C7.51957 19.8946 7.26522 20 7 20H5C4.73478 20 4.48043 19.8946 4.29289 19.7071C4.10536 19.5196 4 19.2652 4 19V12C4 11.7348 4.10536 11.4804 4.29289 11.2929C4.48043 11.1054 4.73478 11 5 11H8ZM8 11C9.06087 11 10.0783 10.5786 10.8284 9.82843C11.5786 9.07828 12 8.06087 12 7V6C12 5.46957 12.2107 4.96086 12.5858 4.58579C12.9609 4.21071 13.4696 4 14 4C14.5304 4 15.0391 4.21071 15.4142 4.58579C15.7893 4.96086 16 5.46957 16 6V11H19C19.5304 11 20.0391 11.2107 20.4142 11.5858C20.7893 11.9609 21 12.4696 21 13L20 18C19.8562 18.6135 19.5834 19.1402 19.2227 19.501C18.8619 19.8617 18.4328 20.0368 18 20H11C10.2044 20 9.44129 19.6839 8.87868 19.1213C8.31607 18.5587 8 17.7956 8 17" stroke="#BBFFC7" stroke-width="2" stroke-linecap="round" stroke-linejoin="round" shape-rendering="crispEdges"/>
</g>
</g>
<defs>
<filter id="filter0_d_668_665" x="0" y="0" width="25" height="24.0049" filterUnits="userSpaceOnUse" color-interpolation-filters="sRGB">
<feFlood flood-opacity="0" result="BackgroundImageFix"/>
<feColorMatrix in="SourceAlpha" type="matrix" values="0 0 0 0 0 0 0 0 0 0 0 0 0 0 0 0 0 0 127 0" result="hardAlpha"/>
<feOffset/>
<feGaussianBlur stdDeviation="1.5"/>
<feComposite in2="hardAlpha" operator="out"/>
<feColorMatrix type="matrix" values="0 0 0 0 0.532969 0 0 0 0 0.958698 0 0 0 0 0.611019 0 0 0 1 0"/>
<feBlend mode="normal" in2="BackgroundImageFix" result="effect1_dropShadow_668_665"/>
<feBlend mode="normal" in="SourceGraphic" in2="effect1_dropShadow_668_665" result="shape"/>
</filter>
<clipPath id="clip0_668_665">
<rect width="24" height="24" fill="white"/>
</clipPath>
</defs>
</svg>
